<svg id="Layer_1" data-name="Layer 1" xmlns="http://www.w3.org/2000/svg" xmlns:xlink="http://www.w3.org/1999/xlink" viewBox="0 0 1800 1300"><defs><style>.cls-1{opacity:0.3;fill:url(#linear-gradient);}.cls-2{font-size:184.7px;font-family:Montserrat-Bold, Montserrat;font-weight:700;}.cls-2,.cls-5{fill:#fff;}.cls-3{letter-spacing:-0.01em;}.cls-4{letter-spacing:-0.01em;}</style><linearGradient id="linear-gradient" x1="594.24" y1="995.92" x2="1094.93" y2="344.77" gradientUnits="userSpaceOnUse"><stop offset="0" stop-color="#c962d9"/><stop offset="1" stop-color="#18dae8"/></linearGradient></defs><title>inscricao</title><rect x="1.5" y="0.21" width="1798.43" height="1301.29"/><path class="cls-1" d="M502.5,465.72c6.12-4.74,9.41-11.77,15-17.1q71.41-68.16,142.26-136.9c12.21-11.83,26.46-17.65,43.62-17.63q170.61.15,341.22.08c46.8.05,80.22,32.92,80.38,78.64,0,14-.14,28.07.09,42.1a17,17,0,0,1-4.5,12.2c-17.1,19.8-34,39.8-50.92,59.74-5.19,6.1-10.5,12.08-13.75,19.53-1.3,3-4,6-7.23,5.12-2.75-.78-1.44-4.64-1.45-7.12q-.09-60,0-119.94c0-12.56-1.58-14.05-14.56-14.05H746.5c-10.53,0-10.56,0-10.56,10.48,0,29.4.06,58.79,0,88.18-.1,32.37-21.88,53.73-54.91,53.83-30.53.1-61.06.22-91.59-.11-7-.07-9.25,1.79-9.24,8.89q.32,192.63.16,385.26c0,10.6,2.09,12.7,12.68,12.7q220.46,0,440.92,0c11.34,0,13.21-1.84,13.23-12.91q.09-54.81,0-109.62c0-4,.17-7.64,3.46-10.89,23.79-23.49,46.81-47.72,69.55-72.18a33.87,33.87,0,0,1,3.07-2.57c2.83,2.64,1.67,5.72,1.67,8.41q.12,99.3,0,198.59c-.06,43.94-34.28,77.43-79.2,77.44q-231,.09-462,0c-37.17,0-63.8-18-77.27-52-.8-2-.54-5-4-5.17Zm830,17.47c-4.43.05-6.13-3.88-8.9-6.11-9.14-7.38-16-6.53-23,3.05-7.5,10.35-14.72,20.92-22.76,30.87q-57.28,70.92-115,141.52c-4.75,5.83-7.66,12-2.72,18.73,5.17,7.08,12.19,4.08,18.39,1.71,13.16-5,23.67-14,32.31-24.55,38.9-47.72,79.6-94.08,115.43-144.18,1.52-2.12,2.14-5.81,6.23-5.15ZM879.18,877.79a69.08,69.08,0,0,0,13.39-5.5c17.2-9.13,32.36-21.12,47.07-33.57,79-66.8,148.44-142.53,215.86-220.2,3.93-4.52,2.64-6.85-1.42-10.11-23.4-18.78-46.75-37.62-69.81-56.8-5.24-4.35-8-4.72-12.66,1-51.14,62.65-100.17,126.81-144.54,194.28-19.9,30.26-39.22,60.88-53.66,94.14-3.71,8.54-6.87,17.25-7.67,25.63C865.59,876.58,870.26,880.32,879.18,877.79Zm352.69-499.2c-12.18,7.55-22.56,17.19-32.52,27.27-34.95,35.39-66.12,74-98.41,111.63-3.15,3.67-3,5.88.86,9q36.63,29.4,72.93,59.21c3.8,3.12,6.27,2.84,9.28-.88,7.2-8.92,14.73-17.58,22-26.42,26-31.46,52.61-62.39,75.35-96.26,7.43-11.06,14.29-22.48,18-35.37,7.18-25.18-16.55-55.92-45.81-56.25C1247.06,370.54,1239.25,374,1231.87,378.59ZM669.48,573.79c-9.71,0-11.25,1.58-11.33,11.13-.07,8.72,0,17.45,0,26.18,0,12.63.89,13.48,13.83,13.48l274.5,0c15.31,0,22.88-7.43,22.9-22.51,0-5.29,0-10.58,0-15.87-.05-11.22-1.2-12.44-12.43-12.44q-71.26,0-142.51,0Q741.94,573.77,669.48,573.79Zm.35,101.68c-10.23,0-11.61,1.44-11.68,11.58-.06,9.53-.08,19.06,0,28.59.1,9,1.73,10.59,11,10.6q105.34.07,210.68.13c4.87,0,7.93-1.48,10.57-5.56,7.94-12.29,16.35-24.3,24.47-36.49,1.56-2.36,5-4.68,3.71-7.44-1.4-3-5.36-1.38-8.14-1.38q-60-.16-119.92-.06Q730.2,675.46,669.83,675.47ZM691.18,788.1c-10.16,19-20.31,37.93-30.09,57.07C655,857,659.24,870.09,670.34,876c11.57,6.13,25,2.15,31.87-9.69,3.73-6.43,7-13.1,10.54-19.66,4.61-8.62,4.62-8.62,11.11-1.73,7.88,8.34,15.64,16.8,23.65,25,11.31,11.6,22.67,12.32,35.84,2.47,5.15-3.85,10.66-7.36,15.22-11.81,7.37-7.2,14.4-9.24,22.83-1.71,3.83,3.42,5.9,1.53,6.93-3,1.46-6.44,3.69-12.7,5.22-19.13,1.62-6.8,9.2-13.57,5.65-19.6-3.23-5.5-11.52-8.22-17.7-12-9.59-5.8-19-5.14-27.9,1.46-6,4.46-12.21,8.78-17.81,13.73-4.84,4.27-8.06,4.16-12.47-.82-10.43-11.78-21.5-23-32.22-34.54-5.12-5.52-11.09-9.17-19.3-9.43C702.81,775.9,695.57,779.91,691.18,788.1ZM958.47,472c9.13,0,10.78-1.73,10.87-10.79.09-10.05-.12-20.11.06-30.16.11-6.52-2.47-9.87-9.47-9.86q-68.45.12-136.89,0c-6.46,0-9.35,2.94-9.29,9.21.1,10.32-.06,20.64,0,31,.08,8.92,1.8,10.6,11,10.63,22.14.07,44.28,0,66.42,0C913.65,472.06,936.06,472.11,958.47,472Z"/><text class="cls-2" transform="translate(373.65 655.94)">INSCRI<tspan class="cls-3" x="659.38" y="0">Ç</tspan><tspan class="cls-4" x="792.18" y="0">Ã</tspan><tspan x="931.82" y="0">O</tspan></text><rect class="cls-5" x="432.44" y="723.57" width="388.95" height="12.99" rx="6.23"/><rect class="cls-5" x="1013.6" y="723.57" width="388.95" height="12.99" rx="6.23"/><path class="cls-5" d="M888,781.11c.76-4.59,1.39-8.42,2-12.25,1.27-7.49,2.47-15,3.89-22.44a3.74,3.74,0,0,0-1.34-3.87q-11.38-10.93-22.63-22c-.65-.62-1.21-1.33-2.35-2.6,2.4-.46,4.13-.87,5.89-1.13,9.65-1.4,19.32-2.69,28.95-4.2a4.79,4.79,0,0,0,3.06-2.25c4.73-9.26,9.29-18.61,13.91-27.93.49-1,1-1.94,1.87-3.45.83,1.31,1.46,2.15,1.93,3.08,4.59,9.23,9.21,18.45,13.69,27.73a4.69,4.69,0,0,0,4.17,3c10.59,1.38,21.16,3,31.74,4.5a11.4,11.4,0,0,1,2.1.88c-.92,1-1.58,1.9-2.34,2.65q-11.19,10.92-22.42,21.79a3.55,3.55,0,0,0-1.27,3.63c1.95,10.7,3.72,21.42,5.54,32.14.11.62.12,1.25.23,2.45a27.85,27.85,0,0,1-3.26-1.18c-9-4.68-18-9.32-26.85-14.17a5.61,5.61,0,0,0-6.14-.06c-8.88,4.84-17.88,9.48-26.85,14.17C890.59,780.11,889.58,780.44,888,781.11Z"/></svg>