<svg id="Layer_1" data-name="Layer 1" xmlns="http://www.w3.org/2000/svg" xmlns:xlink="http://www.w3.org/1999/xlink" viewBox="0 0 1800 1300"><defs><style>.cls-1{opacity:0.3;}.cls-2{fill:url(#linear-gradient);}.cls-3{fill:url(#linear-gradient-2);}.cls-4{fill:url(#linear-gradient-3);}.cls-5{fill:url(#linear-gradient-4);}.cls-6{fill:url(#linear-gradient-5);}.cls-7{font-size:184.7px;font-family:Montserrat-Bold, Montserrat;font-weight:700;}.cls-11,.cls-7{fill:#fff;}.cls-8{letter-spacing:-0.01em;}.cls-9{letter-spacing:-0.01em;}.cls-10{letter-spacing:-0.01em;}</style><linearGradient id="linear-gradient" x1="995.15" y1="665.26" x2="1106.17" y2="520.88" gradientUnits="userSpaceOnUse"><stop offset="0.03" stop-color="#62a8e2"/><stop offset="1" stop-color="#18dae8"/></linearGradient><linearGradient id="linear-gradient-2" x1="743.1" y1="884.44" x2="864.35" y2="726.74" gradientUnits="userSpaceOnUse"><stop offset="0" stop-color="#c962d9"/><stop offset="1" stop-color="#18dae8"/></linearGradient><linearGradient id="linear-gradient-3" x1="681.02" y1="955.3" x2="1128.36" y2="373.53" xlink:href="#linear-gradient-2"/><linearGradient id="linear-gradient-4" x1="954.71" y1="902.17" x2="1068.24" y2="754.51" gradientUnits="userSpaceOnUse"><stop offset="0.1" stop-color="#888ede"/><stop offset="1" stop-color="#48bae4"/></linearGradient><linearGradient id="linear-gradient-5" x1="663.65" y1="679.04" x2="774.16" y2="535.32" gradientUnits="userSpaceOnUse"><stop offset="0.33" stop-color="#9585dd"/><stop offset="1" stop-color="#18dae8"/></linearGradient></defs><title>mentores</title><rect x="-3.07" y="0.21" width="1805.05" height="1298.72"/><g class="cls-1"><path class="cls-2" d="M998,649.43c12,32.9,35.49,51,69.86,55.55,13.18,1.73,22.87-4.68,24.09-15.56,1.24-11.15-6-18.12-20.16-19.67-17.6-1.92-30.4-10.73-38-26.42,14-7.25,28-12.55,39.81-20.93,27.64-19.69,42-47.3,43.05-81.44.36-12.27-5.32-19.34-15.54-20.23-11.14-1-17.88,5.19-19.33,17.71-.23,2-.38,4-.63,5.95-3.55,28.19-18.19,48.25-44.8,58.39s-50.84,4.17-72.14-14.46c-10.27-9-19.91-9.41-27.33-1.37-7.68,8.33-7.15,20.1,4.36,27.84,14.64,9.85,31.16,16.88,46.64,25.53C991.78,642.51,996.58,645.63,998,649.43Z"/><path class="cls-3" d="M831.6,705.63a89.32,89.32,0,0,0-23.76,1.8c-46.58,10.35-74.92,43-84,96.59-16.53,1.12-24,7-23.88,18.34s7.18,16.83,23.4,17.88c33.3,2.15,60.78,30.43,63.62,65.48,1.25,15.38,7.72,22.28,19.74,21,11-1.15,16.74-10.27,15.43-24.14-3.57-37.71-21.57-66.31-54.52-85-5.89-3.34-7.48-6.89-7.2-13.2,1.1-24.9,19.14-50.29,43.93-59.16,8.88-3.17,18.7-3.67,28.08-5.48,9.63-1.85,14.82-8,14.56-17.55S841.39,706.13,831.6,705.63Z"/><path class="cls-4" d="M1205.4,570.9a18.06,18.06,0,0,1-2.92-12.6c3.48-19.82,2-39.14-5.33-57.73-12.81-32.54-36.8-53.39-69.26-63.8-.61-1-1-1.36-1-1.66.46-3.57,1.06-7.12,1.48-10.69,3.93-32.83-8.07-58.6-34.84-77.55-11.39-8.06-22.79-16.26-34.93-23.06-19.09-10.68-38.11-22.1-58.43-29.85-34.74-13.24-70-19-100.26,11.35-17.89-17.53-38.65-25.05-62.06-20.77-17.51,3.21-35.6,7.2-51.38,15-23.83,11.77-45.87,27.16-68.69,41-40.09,24.27-51.95,49.43-44.52,95.4-61.7,26.82-79.63,57.44-74.89,126,.22,3.27-2.29,7.17-4.46,10.09-25.9,34.89-30.2,72.21-12,111.59,3.35,7.25,3.74,12.35.07,19.7a103.72,103.72,0,0,0,30.78,129.79c5.94,4.44,8.46,8.64,8.6,16.47.85,50.54,25.49,85.84,70.58,107.75a37.8,37.8,0,0,1,13.38,10.86c47.28,63.35,139.17,64.53,188.1,2.21,2.1-2.68,4.33-5.25,6.53-7.9a22.37,22.37,0,0,1,2.4,2.21c52.37,69.34,141.36,69.45,194.38.39,2.47-3.22,6.49-5.63,10.27-7.42,46.24-21.89,70.76-57.83,72.15-109.41.12-4.59,3-10.61,6.55-13.38,42.59-32.88,54.94-85.32,31.49-134-1.86-3.86-2-10.09-.25-13.92C1236.35,645.79,1232.72,607.34,1205.4,570.9ZM806.92,980.36c-32.1,3-57.71-10.42-75.22-37.49-5.57-8.61-12.09-13.59-21.73-17A79.94,79.94,0,0,1,657.28,840c1.77-14-1.29-22.88-14.8-30-32.29-17-45.19-57.25-30.9-84.5,19,5.6,37.19,12.59,56,16,16.54,3,25.08-3.77,26-15.38s-6.75-17.92-23.32-19.56c-30.67-3-54.15-22.4-61.41-52.11-6.13-25.11-.35-47.83,18.46-65.92,9.16-8.81,11.93-16.88,7.69-29.58-9.22-27.61-2.12-52.32,19.21-71.93,21-19.29,45.89-24.06,72.31-13.32,26.78,10.88,41.13,32,43.76,60.72,1.35,14.76,7.18,21.6,18.77,21s18.06-10.05,16.64-24.31c-5-50.56-37.78-86.08-88.46-96.76-3.57-.76-7.88-5.19-9.07-8.82-6.69-20.34,3.6-42.61,23.25-52.08A44.79,44.79,0,0,1,787,387.78c1.62,2.27,2.76,4.87,4.32,7.18,5.88,8.73,15.39,11.38,23.89,6.76s12.75-15.27,6.74-23.68c-8.44-11.77-19.34-21.82-29.43-32.37-2.11-2.21-5.28-3.4-9.33-5.91,21.93-11.28,42.72-20.23,66.16-20.32,17.33-.06,29.61,10.39,32.49,27.38a64.06,64.06,0,0,1,.69,10.73c.06,27.07,0,54.13,0,81.87-9.72-2.27-18.07-4.72-26.58-6.06-12.38-1.95-21.85,4.62-23.09,15.16-1.3,11.17,5.33,18.29,18.54,19.88,19.84,2.38,30.93,14.76,31.06,35.76.24,39.59,0,79.19.08,118.78q.11,133.78.29,267.56C882.9,940.83,854.17,975.91,806.92,980.36Zm359-176.37c-19.39,11.75-24.52,24-22.85,46.08,2.55,33.87-21.08,64.73-53.39,76-9.25,3.21-15.67,7.81-20.85,16.25a80.86,80.86,0,0,1-89.12,36.25c-35.74-9.32-60.65-40.46-62.08-77.62-1.32-34.22,21.7-67.25,55.18-79.15,2.25-.8,4.63-1.27,6.82-2.2,9.62-4.14,14.08-13.28,11-22.34-3-8.84-12.93-14.79-22.23-10.91-17.08,7.11-33.49,15.83-50.36,24-.07-1-.47-3.94-.47-6.92q0-122.93,0-245.86c0-25.25,8.52-35,33.59-39.07,10.31-1.65,16.69-9.12,16.14-18.9-.53-9.59-7.93-17.2-18.33-16.47-10.12.7-20.09,3.58-31.42,5.75V445.26c0-29.18-.06-58.36,0-87.55.07-27.23,13.47-40.33,40.19-38,20.83,1.79,39.92,9.49,56,18.62-11,11.42-22.9,22-32.59,34.31-8.58,10.91-6.45,22.56,2.49,28.43,9.54,6.27,19.45,2.64,27.35-10,12.32-19.73,35.81-27.36,56.35-18.3,20.21,8.92,31.32,31.77,24.57,52.45-1.25,3.84-6.12,8.44-10,9.19-49.07,9.53-83.35,47.34-87.63,97.55-1.15,13.52,5.18,22.61,16.34,23.43,11.62.86,18.08-6.09,19.08-20.53,2.66-38.65,34.93-68.14,72.6-66.35,37.42,1.77,67.49,33.93,66.32,71.35-.2,6.3-.75,13.14-3.34,18.71-6,12.89-1.42,21.41,7.92,30.52,18.67,18.22,24.2,41,17.8,66.05-6.7,26.21-24.22,42.54-50,49.79-6.08,1.7-12.69,1.39-19,2.48-10,1.75-15.54,7.92-15.49,18.18.06,9.57,7.65,16.33,18.23,16.62,22.79.63,42.94-7.32,61.55-19.72C1201.65,746.59,1193.32,787.38,1165.89,804Z"/><path class="cls-5" d="M1092.34,816.57c-.78-4.14-1.69-9.22-2.69-14.28-9.25-46.63-53-82.7-100.06-82.5-12,.06-19.18,5.87-19.92,16.08s5.57,17.26,17.24,18.84c4,.53,8,.84,11.91,1.4,28.64,4.06,53.72,29.75,57.18,58.36,1,8.46-.44,14.11-9.21,19.16-32.88,18.94-49.75,48.52-52.54,86.15-.94,12.63,6.19,21.18,17.09,21.55s17.23-6.35,18.42-18.88a95.64,95.64,0,0,1,3.63-19.92c8.89-27.95,33.41-46.33,63.7-47.82,8.9-.44,16.7-3.46,18.29-12.16,1-5.77-1-13.81-4.68-18.23C1107.2,820.17,1099.65,819.42,1092.34,816.57Z"/><path class="cls-6" d="M708.59,702.87c33.8-5,56.65-23.39,68.82-55.49,1.43-3.77,6-7.76,9.93-8.93,17.88-5.36,34.29-13.1,47.58-26.38,3.22-3.21,6.2-7.52,7.3-11.83,2.11-8.21-1.35-15-8.88-19-9.47-5.11-16.51-.39-23.55,5.8C788,606.16,763,610.94,736.37,599.76s-40.64-32.39-42.68-61.25c-.94-13.3-7.38-20.45-18.58-20-10.9.44-17.81,8.81-17,21.61,1.42,22.43,8.62,42.8,22.66,60.62,15.66,19.87,36.31,31.87,61.48,38.4-8,17.42-20.44,26.3-37.58,28.26-15.44,1.78-22.29,7.91-21.13,19.86C684.66,698.66,694.45,704.94,708.59,702.87Z"/></g><text class="cls-7" transform="translate(209.22 560.89)">INSCRI<tspan class="cls-8" x="659.38" y="0">Ç</tspan><tspan class="cls-9" x="792.18" y="0">Ã</tspan><tspan x="931.82" y="0">O DE </tspan><tspan x="160.64" y="190">MEN</tspan><tspan class="cls-10" x="610.2" y="190">T</tspan><tspan x="722.5" y="190">ORES</tspan></text><rect class="cls-11" x="424.74" y="817.65" width="395.13" height="13.19" rx="6.23"/><rect class="cls-11" x="1015.13" y="817.65" width="395.13" height="13.19" rx="6.23"/><path class="cls-11" d="M887.48,876.11c.78-4.66,1.41-8.56,2.07-12.45,1.29-7.6,2.51-15.22,4-22.79a3.79,3.79,0,0,0-1.36-3.94c-7.7-7.4-15.34-14.87-23-22.32-.65-.64-1.22-1.36-2.38-2.65,2.43-.47,4.2-.89,6-1.14,9.81-1.42,19.62-2.74,29.41-4.28a4.86,4.86,0,0,0,3.11-2.27c4.8-9.42,9.44-18.92,14.13-28.39.5-1,1.06-2,1.9-3.5.84,1.33,1.49,2.19,2,3.13,4.66,9.38,9.36,18.74,13.91,28.17a4.79,4.79,0,0,0,4.23,3.07c10.77,1.39,21.5,3,32.25,4.56a11.45,11.45,0,0,1,2.13.9c-.93,1.06-1.6,1.93-2.38,2.69Q962,826,950.63,837a3.59,3.59,0,0,0-1.29,3.69c2,10.86,3.78,21.75,5.63,32.64.1.63.12,1.27.23,2.5a29,29,0,0,1-3.31-1.21c-9.11-4.76-18.26-9.47-27.28-14.39a5.72,5.72,0,0,0-6.24-.07c-9,4.92-18.16,9.64-27.27,14.4C890.16,875.09,889.14,875.42,887.48,876.11Z"/></svg>