<svg id="Layer_1" data-name="Layer 1" xmlns="http://www.w3.org/2000/svg" xmlns:xlink="http://www.w3.org/1999/xlink" viewBox="0 0 1800 1300"><defs><style>.cls-1{opacity:0.3;}.cls-2{fill:url(#linear-gradient);}.cls-3{fill:url(#linear-gradient-2);}.cls-4{font-size:184.7px;font-family:Montserrat-Bold, Montserrat;font-weight:700;}.cls-4,.cls-8{fill:#fff;}.cls-5{letter-spacing:0em;}.cls-6{letter-spacing:0.01em;}.cls-7{letter-spacing:-0.01em;}</style><linearGradient id="linear-gradient" x1="1002.71" y1="977.67" x2="1194.98" y2="727.62" gradientUnits="userSpaceOnUse"><stop offset="0" stop-color="#c962d9"/><stop offset="1" stop-color="#18dae8"/></linearGradient><linearGradient id="linear-gradient-2" x1="567.01" y1="986.2" x2="1088.86" y2="307.53" xlink:href="#linear-gradient"/></defs><title>regulamento</title><rect x="1.5" y="0.21" width="1804" height="1301.29"/><g class="cls-1"><path class="cls-2" d="M1111.07,1010.23l-13.16.39-16.49-1-16.49-2.61c-11.27-3.06-22.39-6.55-33-11.48l-14.07-7.21-3.37-2.24-13.91-10-7.46-6.3L984,960.6l-7.12-8-9.52-12.81-2.56-3.9q-4-7.35-8.09-14.69-3.54-8.5-7.09-17L944.9,888l-1.75-10c-.1-.37-.2-.74-.29-1.11-.18-1.8-.35-3.61-.53-5.41l-1.14-16.49.22-14.36,2.67-18.61c1-1.6.77-3.42.91-5.17l.11-.22q1.56-5.6,3.11-11.19l2.17-6.42q2.08-5.1,4.16-10.22l7.84-15.38a13.11,13.11,0,0,0,3.54-5.77l8.64-11.92,7.75-9.21,7.17-7.21,9.13-8.33,10.75-8.2,6-3.86a198.21,198.21,0,0,1,36-16.89l13.44-3.69,18.89-2.9,14.18-.48,16.6.68,14.15,1.85,18.81,5.19a220.65,220.65,0,0,1,31.11,13.85l11.75,7.81,4.17,2.87a237.49,237.49,0,0,1,30,30,19.79,19.79,0,0,0,4.53,6.3l7.46,11.89,6,12.34,5.37,13.16,1.41,4.59q2.46,9.35,4.93,18.69l1.5,12.07,1,18.7-.48,9.81c-.15,1.1-.31,2.2-.46,3.29l-.2,3.47q-1.58,8.25-3.17,16.49c-.14,1.1-.29,2.19-.43,3.28l-.45,1.06-3.66,12.24L1245,912.2q-1.48,3.57-3,7.12-5.15,9.13-10.28,18.27c-.56.91-1.12,1.81-1.67,2.72l-9.79,12.89-7.74,8.76-9,8.78a26.16,26.16,0,0,0-6.41,5.3l-13.57,9.67-3.06,1.93-17.68,9.43-12,4.74-5.25,1.73-14.64,3.77Zm-103.7-158.61c-2.13,8.53.93,15,7.81,20,4.9,6.11,10.63,11.4,16.4,16.66,5.26,5.77,10.56,11.51,16.67,16.42,4.9,5.75,9.71,11.62,16.59,15.23,5.41,2.84,10.89,3.39,16.47.5,7.45-3.14,11.78-9.81,17.24-15.19l16.67-16.52,16.41-16.28a196.51,196.51,0,0,0,16.43-16.35,186.52,186.52,0,0,0,16.55-16.36c7.2-7,14.55-13.89,21.53-21.12,3.43-3.56,5.84-7.92,5.5-13.23C1194,792,1177.4,779.94,1166,784.1l-.22.12-1.73.36a11.14,11.14,0,0,0-6.75,4.25l-9.71,9.71-6.81,6.83a72.51,72.51,0,0,0-9.72,9.71l-6.93,6.93a68.66,68.66,0,0,0-9.6,9.61l-6.82,6.83a69.55,69.55,0,0,0-9.71,9.7l-6.93,6.94a68.05,68.05,0,0,0-9.6,9.6l-6.79,6.84-1.68-.09a45.29,45.29,0,0,0-8-8.28l-8.23-8.24-8.3-8.3c-2.27-2.35-4.32-5-6.84-7-7.07-5.76-14.78-7.71-23.29-3.05a8.51,8.51,0,0,0-4.12,3.09A16.44,16.44,0,0,0,1007.37,851.62Z"/><path class="cls-3" d="M1064.78,293.05c.5,1,1.43.81,2.27.86l14.38,7.91,9.7,7.55,6.68,7,7.44,9.43q4,7.22,8.08,14.42c.05.85-.13,1.79.86,2.28q2.41,8.2,4.82,16.43l1.32,10c0,17.6,0,35.2,0,52.8.06,38.33.22,76.65.22,115,0,36.13-.3,72.26,0,108.39,0,5.28-1.49,6.31-6,5.27-5.52-.74-11.06-.46-16.59-.21-6.24-.15-12.48-.61-18.66.69l-.34-10.79-.08-16.47.08-16.61-.08-16.46.08-16.61-.08-16.47q0-8.31.08-16.61t-.08-16.46q0-8.31.08-16.61l-.08-16.47q0-8.29.08-16.61t-.08-16.46q0-8.31.08-16.61t-.08-16.46q0-8.31.08-16.61,0-8.79-.08-17.57v-14.4c.15-6.57-.83-12.88-4-18.71a27.24,27.24,0,0,0-7.6-12.16,11.89,11.89,0,0,0-4.43-4.42,26.88,26.88,0,0,0-12.23-8,36.75,36.75,0,0,0-18.71-3.93h-280c-.75-.13-1.06.18-.93.92V392l-.39,13.14a98.37,98.37,0,0,1-11.42,36.36l-4.87,7.85-7,8.7a122.78,122.78,0,0,1-26.05,20l-16.61,6.42-16.48,2.68-16.55.69a81.57,81.57,0,0,0-16.46,0,68.63,68.63,0,0,0-16.58,0,82.61,82.61,0,0,0-16.49,0c-4.56-.14-9.12-.18-13.67-.44-3.2-.19-3.1,1.66-2.7,3.84v430c-.65,5.71.51,11.18,2.21,16.58C593,953,603,963.45,618.46,968.39c2.37,1.35,5,1.56,7.63,1.63l1.11.29a20.65,20.65,0,0,0,7.83.33H932.62c1.55-.21,2.26,1,3.12,1.9a143.56,143.56,0,0,0,28.66,31.64l1.14.85,8.91,8.33c-9.55,0-19.1-.11-28.65-.11q-154.29,0-308.59-.06c-6.58,0-13.17-.75-19.75-1.15L602,1008.09A106,106,0,0,1,569,987.17l.06.06c-8.88-9.81-16.11-20.67-20.84-33.1-2.18-8.29-4.62-16.53-4.63-25.22q-.12-77.1-.25-154.18c0-49.56.12-99.12.12-148.67s0-99.12-.21-148.68c-.05-10.84,2.44-20.58,9.13-29.16l6.73-6.58a7.66,7.66,0,0,0,3.22-3.23,3.27,3.27,0,0,0,2.29-2.28,9.53,9.53,0,0,0,4.41-4l6.43-6.08,10-9.69,7.91-7.74c3.45-2.18,6-5.35,8.76-8.22l7.6-7.27,8.75-8.57a52.54,52.54,0,0,0,9.3-8.95c8.42-7,16-14.94,23.69-22.68l10-9.56a44.83,44.83,0,0,0,7.84-7.55L679.51,326c1.84-1.66,4-3,5.21-5.28q5.46-5.13,10.91-10.27l6.71-6.57,10.9-10,4.42-3.14c8.66-3.45,17.69-4.06,26.92-4.05q133.71.14,267.41.07c8.79,0,17.59.17,26.39.26l10,1.21ZM645.35,838.38l5.54,2,17.17.44H883c3.44-.05,6.89-.28,10.31-.09,3,.17,4-.77,4.12-3.92.19-5,1.13-10,1.75-15,.26-5.65,1.72-11.08,3-16.53-.71-2.59,4.93-7.43-2.69-7.55a94.94,94.94,0,0,1-16.52,0H866.46a94.94,94.94,0,0,1-16.52,0H833.4a94.94,94.94,0,0,1-16.52,0H800.33a94.94,94.94,0,0,1-16.52,0H767.27a94.94,94.94,0,0,1-16.52,0H734.2a94.94,94.94,0,0,1-16.52,0H701.14a94.94,94.94,0,0,1-16.52,0H668.07l-16.33.39c-12.57,3.41-17.39,9.77-18,23.81l1.5,5.83A30,30,0,0,0,645.35,838.38Zm-11.51-99.1,2.67,6.48a29.82,29.82,0,0,0,9.69,8.39l5.34,1.73,16.56.07H916.05l4.94-.37c7.91-15.07,18.08-28.56,30-42h-4.6l-97.34,0-198.54.09C637,719,633.93,723.77,633.84,739.28ZM898.68,887.75c-.25-1.62-.49-3.25-.73-4.87L883,882.44h-215l-16.5.07c-9.66,1.82-16.42,7-19.15,16.73l-.36,1.09-.3,4.3c1.38,11.92,8.24,18.62,19.82,20.83l16.5.09h16.55a94.94,94.94,0,0,1,16.52,0h16.54a94.94,94.94,0,0,1,16.52,0h16.55a94.94,94.94,0,0,1,16.52,0h16.54a94.94,94.94,0,0,1,16.52,0h16.55a94.94,94.94,0,0,1,16.52,0h16.54a94.94,94.94,0,0,1,16.52,0H883a94.94,94.94,0,0,1,16.52,0c2.29-.08,4.59-.27,6.87-.19s1.93-1.41,1.8-2.81a87.44,87.44,0,0,1-5.78-17.72A86.1,86.1,0,0,1,898.68,887.75ZM650.47,586.27l358.15.05,5.39-1.7a29.62,29.62,0,0,0,10.18-10.71,37.79,37.79,0,0,0,1.22-14.39c-1.51-5.84-5.17-10-10.14-13.23l-4.67-1.78-.21-.11L998.71,544H668.06l-16.5.07-1.73.33-.22.12A29.16,29.16,0,0,0,637.22,553l-3,6.35a34.56,34.56,0,0,0,.8,14.59l1.11,2.13A25.62,25.62,0,0,0,650.47,586.27Zm-15.83,70.15.68,2.58a24.27,24.27,0,0,0,16.2,12.1q64.11-.09,128.22-.18,106.49,0,213,0c2,0,4,.14,6,.21,5-.31,10.16.07,15.09-1.5,5.26-3.2,9.73-7.1,11.74-13.19a21.08,21.08,0,0,0-11.69-26.16c-4.92-1.84-10.09-1-15.14-1.49H668.11l-16.59,0a24.34,24.34,0,0,0-16,11.67C633.85,645.73,633,651,634.64,656.42ZM982.22,459.1H816.89l-7.57.47-7.82,3a28.26,28.26,0,0,0-9,12.11,34.14,34.14,0,0,0,1.2,15.39q3.9,4.4,7.82,8.78a38.14,38.14,0,0,0,15.31,3.34,97,97,0,0,1,16.52,0h16.54a97,97,0,0,1,16.52,0H883a97,97,0,0,1,16.52,0h16.54a97,97,0,0,1,16.52,0h16.55a97,97,0,0,1,16.52,0H982.2a97,97,0,0,1,16.52,0c5.65-.35,11.38-.12,16.65-2.75,3.7-1.9,6.23-5.05,8.71-8.23,2.41-5.32,2.61-10.9,2-16.58a28.14,28.14,0,0,0-10.79-13.15l-5.72-1.84-10.84-.55Z"/></g><text class="cls-4" transform="translate(157.91 653.57)">R<tspan class="cls-5" x="135.75" y="0">E</tspan><tspan x="259.32" y="0">GU</tspan><tspan class="cls-6" x="547.27" y="0">L</tspan><tspan x="659.94" y="0">AMEN</tspan><tspan class="cls-7" x="1250.98" y="0">T</tspan><tspan x="1363.29" y="0">O</tspan></text><rect class="cls-8" x="423.73" y="724.89" width="395.95" height="13.22" rx="6.61"/><rect class="cls-8" x="1015.33" y="724.89" width="395.95" height="13.22" rx="6.61"/><path class="cls-8" d="M887.42,783.47c.78-4.67,1.41-8.58,2.07-12.48,1.3-7.61,2.52-15.24,4-22.83a3.8,3.8,0,0,0-1.36-3.95c-7.72-7.41-15.38-14.9-23-22.37-.65-.63-1.23-1.35-2.38-2.65,2.43-.47,4.2-.89,6-1.15,9.82-1.42,19.66-2.74,29.47-4.28a4.87,4.87,0,0,0,3.11-2.28c4.82-9.43,9.46-19,14.16-28.44.5-1,1.07-2,1.91-3.51.84,1.34,1.49,2.19,2,3.14,4.68,9.39,9.38,18.77,13.94,28.23a4.8,4.8,0,0,0,4.24,3.07c10.79,1.39,21.55,3,32.31,4.57a11.21,11.21,0,0,1,2.14.9c-.94,1.07-1.61,1.93-2.38,2.69q-11.38,11.11-22.82,22.19a3.59,3.59,0,0,0-1.29,3.7c2,10.88,3.78,21.8,5.63,32.71.11.63.12,1.27.23,2.5A29.75,29.75,0,0,1,952,782c-9.13-4.77-18.29-9.49-27.34-14.42a5.72,5.72,0,0,0-6.24-.07c-9,4.93-18.21,9.65-27.34,14.43C890.1,782.45,889.08,782.78,887.42,783.47Z"/></svg>