<svg id="Layer_1" data-name="Layer 1" xmlns="http://www.w3.org/2000/svg" xmlns:xlink="http://www.w3.org/1999/xlink" viewBox="0 0 1800 1300"><defs><style>.cls-1{opacity:0.3;fill:url(#linear-gradient);}.cls-2{font-size:181.81px;font-family:Montserrat-SemiBold, Montserrat;font-weight:600;}.cls-2,.cls-4{fill:#fff;}.cls-3{letter-spacing:-0.01em;}.cls-5{fill:url(#linear-gradient-2);}.cls-6{font-size:116px;font-family:Montserrat-Medium, Montserrat;font-weight:500;}.cls-7{letter-spacing:-0.06em;}.cls-8{letter-spacing:-0.03em;}.cls-9{letter-spacing:0em;}.cls-10,.cls-11,.cls-12{font-family:Montserrat-ExtraBold, Montserrat;font-weight:800;}.cls-11{letter-spacing:0.02em;}.cls-12{letter-spacing:-0.02em;}</style><linearGradient id="linear-gradient" x1="506.77" y1="1021.44" x2="1224.4" y2="88.15" gradientUnits="userSpaceOnUse"><stop offset="0" stop-color="#c962d9"/><stop offset="1" stop-color="#18dae8"/></linearGradient><linearGradient id="linear-gradient-2" x1="522.45" y1="1457.99" x2="1277.41" y2="476.15" xlink:href="#linear-gradient"/></defs><title>winners-1</title><rect x="-120.5" y="0.21" width="1920.43" height="1301.29"/><path class="cls-1" d="M900.2,176.79q160.83,0,321.64,0c20.86,0,21.23.47,21.22,19.12,0,11.26-.13,22.53,0,33.79.21,13.17,1.78,14.64,16.54,14.66q76.85.13,153.68,0c19.5,0,20.26.58,20.27,17.72,0,70.41,1.1,140.84-.35,211.22-1.51,73-25.92,139.32-82,194.49-48.79,48-110.48,76.23-181,89.52-15,2.82-25.66,8.15-35,19-37.78,44-85.65,76-146.13,91.8-9.71,2.53-13.21,7.27-13.08,16,.39,25.7.52,51.41-.09,77.09-.25,10.23,4.27,15.27,15.08,18.2,46.3,12.55,87.23,33.6,122.75,62.78,21.83,17.92,39.88,38.29,49.62,63.6,5.38,14,2.67,17.37-13.59,17.37q-250.17,0-500.33-.07c-15.84,0-18.24-3.07-13-16.7,12.69-32.92,38.36-57.14,68.2-78.3a316.33,316.33,0,0,1,103.65-48.5c11.46-3,15.8-8.34,15.53-18.9-.65-25.34-.52-50.7-.06-76,.17-9.22-3.65-14-13.74-16.68-61.24-16.19-109.39-48.92-147.38-93.77-7.73-9.13-16.79-13.88-29.18-16.12-59.84-10.82-113.8-32.6-160.07-68.55-45.2-35.12-75.3-78.61-92-129.52A300,300,0,0,1,366,464.27c.37-67.59.12-135.18.14-202.77,0-16.28.95-17.09,19.78-17.09q76.24,0,152.48,0c17.1,0,18.27-1.12,18.37-16.26.07-11.27,0-22.53,0-33.8.09-16.72.85-17.48,19.37-17.49q109-.09,218-.06ZM793.61,517c-.15.88-.63,4.38-1.28,7.85q-9.74,52.62-19.47,105.24c-.62,3.35-3,7.49.76,9.93s7.45-.91,10.78-2.53c34.11-16.6,68.31-33.07,102.14-50.12,9.38-4.73,17.1-4.86,26.53-.09,33.46,16.9,67.29,33.23,101.06,49.65,3.65,1.77,7.8,5.48,11.9,2.91s1.46-7.24.79-10.9c-6.1-33.35-11.9-66.76-18.8-100-2.76-13.24-.33-22.91,11.32-32.77,27.27-23.07,52.94-47.63,79.15-71.68,2.58-2.37,7.17-4.43,5.19-8.62-1.61-3.43-6.12-2.8-9.49-3.27-38.43-5.39-76.84-10.91-115.35-15.78-9.76-1.24-15.6-4.84-19.72-12.78-17.26-33.25-35-66.3-52.72-99.38-1.48-2.76-2.21-7.05-6-7.29-5-.32-5.32,4.59-6.9,7.55-17.3,32.47-34.68,64.9-51.46,97.58-4.62,9-11.18,13.25-22.33,14.6-35.4,4.28-70.68,9.33-106,14.36-6,.86-14.91-.63-17.18,4.75-2.41,5.71,6,9.08,10.12,12.93C733,453.57,759.71,477.72,786.27,502,790.12,505.47,794.62,508.71,793.61,517Zm563.77-97.95c0-35.94-.15-65.14.1-94.34.07-8.88-3.93-12.81-14.12-12.73q-42.85.33-85.71,0c-10.84-.11-14.78,4.17-14.67,13.43.29,24.27-.11,48.55.1,72.82.4,46.41.91,92.89-3.63,139.12C1235.2,580.53,1225.68,623,1209,664c-1.14,2.81-3.93,6.33-.37,8.74,3.18,2.16,6.86-.33,10-1.63q12.39-5.15,24.58-10.69c66.67-30.38,103.68-78.69,112-144.71C1359.54,481.26,1355.94,446.78,1357.38,419.09Zm-800.62,7.54c0-40.72,0-69.92,0-99.12,0-14-1.49-15.36-16.82-15.42q-39.28-.16-78.58-.08c-17.79,0-18.94,1-18.95,16.84-.05,48.91.24,97.82-.09,146.72a278.92,278.92,0,0,0,5,55.67c14,71.31,65,114.28,137.17,141.09,2.19.81,4.73,1.88,6.81.47,2.8-1.9,1.11-4.55.38-6.83-1-3-2.22-6-3.41-9-15.51-39.08-23.65-79.67-28.57-120.58C554.82,496.15,556.65,455.57,556.76,426.63Z"/><text class="cls-2" transform="translate(489.42 653.79)">1ยบ <tspan class="cls-3" x="196.17" y="0">L</tspan><tspan x="303.26" y="0">UGAR</tspan></text><rect class="cls-4" x="432.44" y="723.57" width="388.95" height="12.99" rx="6.23"/><rect class="cls-4" x="1013.6" y="723.57" width="388.95" height="12.99" rx="6.23"/><path class="cls-4" d="M888,781.11c.76-4.59,1.39-8.42,2-12.25,1.27-7.49,2.47-15,3.89-22.44a3.74,3.74,0,0,0-1.34-3.87q-11.38-10.93-22.63-22c-.65-.62-1.21-1.33-2.35-2.6,2.4-.46,4.13-.87,5.89-1.13,9.65-1.4,19.32-2.69,28.95-4.2a4.79,4.79,0,0,0,3.06-2.25c4.73-9.26,9.29-18.61,13.91-27.93.49-1,1-1.94,1.87-3.45.83,1.31,1.46,2.15,1.93,3.08,4.59,9.23,9.21,18.45,13.69,27.73a4.69,4.69,0,0,0,4.17,3c10.59,1.38,21.16,3,31.74,4.5a11.4,11.4,0,0,1,2.1.88c-.92,1-1.58,1.9-2.34,2.65q-11.19,10.92-22.42,21.79a3.55,3.55,0,0,0-1.27,3.63c1.95,10.7,3.72,21.42,5.54,32.14.11.62.12,1.25.23,2.45a27.85,27.85,0,0,1-3.26-1.18c-9-4.68-18-9.32-26.85-14.17a5.61,5.61,0,0,0-6.14-.06c-8.88,4.84-17.88,9.48-26.85,14.17C890.59,780.11,889.58,780.44,888,781.11Z"/><rect class="cls-4" x="564.36" y="590.79" width="63.43" height="11.14"/><rect class="cls-5" x="-0.07" y="877.93" width="1800" height="178.29"/><text class="cls-6" transform="translate(140.56 1006.86)">RESU<tspan class="cls-7" x="325.84" y="0">L</tspan><tspan class="cls-8" x="387.2" y="0">T</tspan><tspan class="cls-9" x="451.24" y="0">ADO </tspan><tspan class="cls-10" x="760.61" y="0">DIA 1</tspan><tspan class="cls-11" x="1067.65" y="0">4</tspan><tspan class="cls-12" x="1151.4" y="0">/</tspan><tspan class="cls-10" x="1197.22" y="0">08/21</tspan></text></svg>