<svg id="Layer_1" data-name="Layer 1" xmlns="http://www.w3.org/2000/svg" xmlns:xlink="http://www.w3.org/1999/xlink" viewBox="0 0 1800 1300"><defs><style>.cls-1{opacity:0.15;fill:url(#linear-gradient);}.cls-2{font-size:181.81px;font-family:Montserrat-SemiBold, Montserrat;font-weight:600;}.cls-2,.cls-4{fill:#fff;}.cls-3{letter-spacing:-0.01em;}.cls-5{fill:url(#linear-gradient-2);}.cls-6{font-size:116px;font-family:Montserrat-Medium, Montserrat;font-weight:500;}.cls-7{letter-spacing:-0.06em;}.cls-8{letter-spacing:-0.03em;}.cls-9{letter-spacing:0em;}.cls-10,.cls-11,.cls-12{font-family:Montserrat-ExtraBold, Montserrat;font-weight:800;}.cls-11{letter-spacing:0.02em;}.cls-12{letter-spacing:-0.02em;}</style><linearGradient id="linear-gradient" x1="563.81" y1="1036.06" x2="1177.34" y2="238.15" gradientUnits="userSpaceOnUse"><stop offset="0" stop-color="#c962d9"/><stop offset="1" stop-color="#18dae8"/></linearGradient><linearGradient id="linear-gradient-2" x1="522.45" y1="1457.99" x2="1277.41" y2="476.15" xlink:href="#linear-gradient"/></defs><title>winners-3</title><rect x="-82.79" y="0.21" width="1882.71" height="1301.29"/><path class="cls-1" d="M900.17,313.94q137.49,0,275,0c17.83,0,18.14.4,18.14,16.35,0,9.63-.11,19.26,0,28.89.18,11.26,1.52,12.51,14.14,12.53q65.7.11,131.39,0c16.67,0,17.32.49,17.33,15.15,0,60.2.94,120.41-.3,180.58-1.3,62.43-22.17,119.11-70.14,166.28-41.72,41-94.45,65.17-154.77,76.54-12.81,2.41-21.93,7-29.87,16.22-32.3,37.66-73.23,65-124.94,78.48-8.3,2.17-11.29,6.22-11.18,13.7.33,22,.45,43.94-.08,65.9-.21,8.75,3.66,13.06,12.9,15.56,39.58,10.73,74.57,28.73,104.95,53.67,18.66,15.33,34.09,32.74,42.41,54.38,4.61,12,2.28,14.85-11.61,14.85q-213.88,0-427.76-.06c-13.54,0-15.59-2.63-11.1-14.28,10.85-28.14,32.79-48.85,58.3-66.94a270.33,270.33,0,0,1,88.62-41.46c9.8-2.56,13.51-7.13,13.28-16.17-.56-21.66-.45-43.34,0-65,.14-7.89-3.12-12-11.75-14.27-52.36-13.83-93.53-41.82-126-80.16-6.62-7.81-14.36-11.87-25-13.79-51.16-9.24-97.29-27.87-136.85-58.6-38.64-30-64.38-67.21-78.64-110.73a256.74,256.74,0,0,1-13.21-81.89c.32-57.78.1-115.57.12-173.36,0-13.92.81-14.6,16.91-14.6q65.19,0,130.36,0c14.62,0,15.62-.95,15.71-13.9.06-9.63,0-19.26,0-28.89.08-14.3.73-14.95,16.56-15q93.18-.08,186.38-.05ZM809,604.82c-.12.76-.54,3.75-1.09,6.72q-8.33,45-16.65,90c-.53,2.87-2.53,6.41.65,8.49s6.37-.78,9.22-2.16c29.16-14.2,58.4-28.27,87.32-42.85,8-4,14.62-4.16,22.69-.08,28.6,14.45,57.52,28.42,86.39,42.45,3.13,1.52,6.68,4.69,10.18,2.49s1.25-6.19.68-9.32c-5.22-28.52-10.18-57.08-16.08-85.48-2.36-11.32-.28-19.59,9.68-28,23.32-19.73,45.26-40.73,67.67-61.29,2.2-2,6.13-3.79,4.44-7.37-1.39-2.93-5.24-2.39-8.12-2.79-32.85-4.61-65.69-9.33-98.62-13.5-8.34-1-13.33-4.13-16.86-10.92-14.76-28.43-29.95-56.68-45.07-85-1.26-2.37-1.89-6-5.16-6.24-4.29-.27-4.55,3.93-5.9,6.46-14.79,27.75-29.65,55.48-44,83.42-4,7.71-9.56,11.33-19.1,12.48-30.26,3.66-60.43,8-90.59,12.28-5.15.74-12.74-.53-14.68,4.06-2.06,4.89,5.08,7.76,8.65,11.06,22.56,20.84,45.36,41.48,68.07,62.2C806.06,594.93,809.9,597.7,809,604.82Zm482-83.73c0-30.73-.14-55.7.08-80.66.06-7.59-3.36-10.95-12.07-10.89q-36.63.29-73.28,0c-9.27-.09-12.63,3.57-12.54,11.48.25,20.75-.09,41.51.09,62.26.34,39.68.77,79.41-3.11,118.94-3.63,36.91-11.77,73.22-26,108.26-1,2.39-3.36,5.4-.31,7.47,2.72,1.84,5.86-.29,8.54-1.4q10.6-4.39,21-9.14c57-26,88.65-67.28,95.77-123.71C1292.88,574.24,1289.8,544.76,1291,521.09Zm-684.49,6.44c0-34.81,0-59.78,0-84.74,0-12-1.27-13.13-14.38-13.19q-33.58-.14-67.18-.06c-15.21,0-16.19.89-16.2,14.39,0,41.82.2,83.63-.07,125.45A237.63,237.63,0,0,0,513,617c11.94,61,55.57,97.7,117.28,120.62,1.86.7,4,1.61,5.81.4,2.4-1.62,1-3.89.33-5.84-.84-2.59-1.9-5.14-2.91-7.7-13.26-33.4-20.22-68.1-24.43-103.08C604.89,587,606.46,552.27,606.55,527.53Z"/><text class="cls-2" transform="translate(471.15 653.79)">3ยบ <tspan class="cls-3" x="232.72" y="0">L</tspan><tspan x="339.81" y="0">UGAR</tspan></text><rect class="cls-4" x="432.44" y="723.57" width="388.95" height="12.99" rx="6.23"/><rect class="cls-4" x="1013.6" y="723.57" width="388.95" height="12.99" rx="6.23"/><path class="cls-4" d="M888,781.11c.76-4.59,1.39-8.42,2-12.25,1.27-7.49,2.47-15,3.89-22.44a3.74,3.74,0,0,0-1.34-3.87q-11.38-10.93-22.63-22c-.65-.62-1.21-1.33-2.35-2.6,2.4-.46,4.13-.87,5.89-1.13,9.65-1.4,19.32-2.69,28.95-4.2a4.79,4.79,0,0,0,3.06-2.25c4.73-9.26,9.29-18.61,13.91-27.93.49-1,1-1.94,1.87-3.45.83,1.31,1.46,2.15,1.93,3.08,4.59,9.23,9.21,18.45,13.69,27.73a4.69,4.69,0,0,0,4.17,3c10.59,1.38,21.16,3,31.74,4.5a11.4,11.4,0,0,1,2.1.88c-.92,1-1.58,1.9-2.34,2.65q-11.19,10.92-22.42,21.79a3.55,3.55,0,0,0-1.27,3.63c1.95,10.7,3.72,21.42,5.54,32.14.11.62.12,1.25.23,2.45a27.85,27.85,0,0,1-3.26-1.18c-9-4.68-18-9.32-26.85-14.17a5.61,5.61,0,0,0-6.14-.06c-8.88,4.84-17.88,9.48-26.85,14.17C890.59,780.11,889.58,780.44,888,781.11Z"/><rect class="cls-4" x="583.21" y="590.79" width="66.86" height="11.14"/><rect class="cls-5" x="-0.07" y="877.93" width="1800" height="178.29"/><text class="cls-6" transform="translate(140.56 1006.86)">RESU<tspan class="cls-7" x="325.84" y="0">L</tspan><tspan class="cls-8" x="387.2" y="0">T</tspan><tspan class="cls-9" x="451.24" y="0">ADO </tspan><tspan class="cls-10" x="760.61" y="0">DIA 1</tspan><tspan class="cls-11" x="1067.65" y="0">4</tspan><tspan class="cls-12" x="1151.4" y="0">/</tspan><tspan class="cls-10" x="1197.22" y="0">08/21</tspan></text></svg>