<svg id="Layer_1" data-name="Layer 1" xmlns="http://www.w3.org/2000/svg" xmlns:xlink="http://www.w3.org/1999/xlink" viewBox="0 0 1800 1300"><defs><style>.cls-1{opacity:0.2;fill:url(#linear-gradient);}.cls-2{font-size:181.81px;font-family:Montserrat-SemiBold, Montserrat;font-weight:600;}.cls-2,.cls-4{fill:#fff;}.cls-3{letter-spacing:-0.01em;}.cls-5{fill:url(#linear-gradient-2);}.cls-6{font-size:116px;font-family:Montserrat-Medium, Montserrat;font-weight:500;}.cls-7{letter-spacing:-0.06em;}.cls-8{letter-spacing:-0.03em;}.cls-9{letter-spacing:0em;}.cls-10,.cls-11,.cls-12{font-family:Montserrat-ExtraBold, Montserrat;font-weight:800;}.cls-11{letter-spacing:0.02em;}.cls-12{letter-spacing:-0.02em;}</style><linearGradient id="linear-gradient" x1="566.66" y1="1033.37" x2="1174.99" y2="242.22" gradientUnits="userSpaceOnUse"><stop offset="0" stop-color="#c962d9"/><stop offset="1" stop-color="#18dae8"/></linearGradient><linearGradient id="linear-gradient-2" x1="522.45" y1="1457.99" x2="1277.41" y2="476.15" xlink:href="#linear-gradient"/></defs><title>winners-2</title><rect x="-271.79" y="0.21" width="2071.71" height="1301.29"/><path class="cls-1" d="M900.17,317.36q136.33,0,272.66,0c17.68,0,18,.4,18,16.2,0,9.55-.12,19.11,0,28.65.18,11.16,1.51,12.41,14,12.43q65.13.1,130.27,0c16.53,0,17.18.49,17.18,15,0,59.68.94,119.38-.3,179-1.28,61.9-22,118.1-69.54,164.87-41.36,40.67-93.65,64.62-153.45,75.89-12.71,2.39-21.75,6.91-29.63,16.09-32,37.33-72.6,64.45-123.87,77.81-8.23,2.15-11.2,6.17-11.09,13.58.33,21.78.44,43.57-.08,65.35-.21,8.67,3.63,12.94,12.79,15.43,39.25,10.63,73.94,28.48,104.06,53.21,18.5,15.2,33.8,32.46,42,53.92,4.57,11.86,2.27,14.72-11.51,14.72q-212.07,0-424.14-.05c-13.42,0-15.46-2.61-11-14.16,10.76-27.91,32.51-48.44,57.81-66.38a268.14,268.14,0,0,1,87.86-41.11c9.72-2.54,13.4-7.07,13.17-16-.56-21.47-.44-43-.05-64.45.14-7.82-3.1-11.88-11.65-14.15-51.91-13.72-92.73-41.46-124.93-79.48-6.56-7.74-14.24-11.77-24.74-13.67C623.36,801,577.62,782.52,538.4,752c-38.31-29.77-63.84-66.63-78-109.79a254.64,254.64,0,0,1-13.09-81.19c.32-57.3.1-114.6.12-171.89,0-13.8.8-14.49,16.77-14.49q64.62,0,129.25,0c14.5,0,15.49-.95,15.57-13.79.07-9.54,0-19.09,0-28.64.08-14.18.72-14.82,16.41-14.83q92.4-.07,184.8-.05ZM809.81,605.79c-.12.75-.53,3.71-1.08,6.65q-8.25,44.61-16.51,89.22c-.52,2.84-2.51,6.35.65,8.41s6.32-.77,9.14-2.14c28.91-14.08,57.91-28,86.58-42.49,7.95-4,14.49-4.12,22.49-.08,28.36,14.33,57,28.18,85.67,42.09,3.09,1.51,6.61,4.65,10.08,2.47s1.25-6.13.68-9.24c-5.18-28.27-10.09-56.59-15.94-84.75-2.34-11.23-.28-19.42,9.6-27.78,23.11-19.56,44.87-40.38,67.09-60.76,2.19-2,6.08-3.76,4.4-7.31-1.37-2.91-5.19-2.37-8-2.77-32.58-4.57-65.14-9.25-97.79-13.38-8.27-1.05-13.22-4.1-16.72-10.83-14.63-28.19-29.69-56.21-44.68-84.25-1.26-2.34-1.88-6-5.13-6.18-4.25-.27-4.51,3.9-5.84,6.4-14.67,27.52-29.41,55-43.62,82.72-3.93,7.64-9.48,11.23-18.93,12.38-30,3.62-59.92,7.91-89.83,12.17-5.11.73-12.63-.53-14.56,4-2,4.84,5,7.69,8.58,11,22.37,20.66,45,41.13,67.49,61.67C806.85,596,810.67,598.73,809.81,605.79Zm477.91-83c0-30.47-.13-55.22.08-80,.07-7.53-3.33-10.86-12-10.8q-36.33.28-72.66,0c-9.19-.09-12.53,3.54-12.43,11.38.24,20.58-.1,41.16.08,61.73.34,39.35.77,78.74-3.08,117.94-3.6,36.6-11.67,72.6-25.83,107.34-1,2.37-3.33,5.36-.31,7.4,2.7,1.83,5.82-.28,8.47-1.38q10.51-4.36,20.84-9.07c56.52-25.74,87.89-66.7,94.95-122.66C1289.55,575.46,1286.5,546.23,1287.72,522.76ZM609,529.15c0-34.52,0-59.27,0-84,0-11.87-1.26-13-14.26-13.07q-33.3-.14-66.61-.06c-15.08,0-16,.88-16.07,14.27,0,41.46.2,82.92-.07,124.38a236.59,236.59,0,0,0,4.22,47.19c11.84,60.45,55.1,96.88,116.28,119.6,1.85.69,4,1.59,5.77.4,2.37-1.62,1-3.86.32-5.79-.83-2.58-1.88-5.1-2.88-7.64-13.15-33.12-20.05-67.53-24.23-102.21C607.39,588.09,608.94,553.68,609,529.15Z"/><text class="cls-2" transform="translate(471.15 653.79)">2ยบ <tspan class="cls-3" x="232.72" y="0">L</tspan><tspan x="339.81" y="0">UGAR</tspan></text><rect class="cls-4" x="432.44" y="723.57" width="388.95" height="12.99" rx="6.23"/><rect class="cls-4" x="1013.6" y="723.57" width="388.95" height="12.99" rx="6.23"/><path class="cls-4" d="M888,781.11c.76-4.59,1.39-8.42,2-12.25,1.27-7.49,2.47-15,3.89-22.44a3.74,3.74,0,0,0-1.34-3.87q-11.38-10.93-22.63-22c-.65-.62-1.21-1.33-2.35-2.6,2.4-.46,4.13-.87,5.89-1.13,9.65-1.4,19.32-2.69,28.95-4.2a4.79,4.79,0,0,0,3.06-2.25c4.73-9.26,9.29-18.61,13.91-27.93.49-1,1-1.94,1.87-3.45.83,1.31,1.46,2.15,1.93,3.08,4.59,9.23,9.21,18.45,13.69,27.73a4.69,4.69,0,0,0,4.17,3c10.59,1.38,21.16,3,31.74,4.5a11.4,11.4,0,0,1,2.1.88c-.92,1-1.58,1.9-2.34,2.65q-11.19,10.92-22.42,21.79a3.55,3.55,0,0,0-1.27,3.63c1.95,10.7,3.72,21.42,5.54,32.14.11.62.12,1.25.23,2.45a27.85,27.85,0,0,1-3.26-1.18c-9-4.68-18-9.32-26.85-14.17a5.61,5.61,0,0,0-6.14-.06c-8.88,4.84-17.88,9.48-26.85,14.17C890.59,780.11,889.58,780.44,888,781.11Z"/><rect class="cls-4" x="583.64" y="590.79" width="66.43" height="11.14"/><rect class="cls-5" x="-0.07" y="877.93" width="1800" height="178.29"/><text class="cls-6" transform="translate(140.56 1006.86)">RESU<tspan class="cls-7" x="325.84" y="0">L</tspan><tspan class="cls-8" x="387.2" y="0">T</tspan><tspan class="cls-9" x="451.24" y="0">ADO </tspan><tspan class="cls-10" x="760.61" y="0">DIA 1</tspan><tspan class="cls-11" x="1067.65" y="0">4</tspan><tspan class="cls-12" x="1151.4" y="0">/</tspan><tspan class="cls-10" x="1197.22" y="0">08/21</tspan></text></svg>